<?xml version="1.0" standalone="no"?><!DOCTYPE svg PUBLIC "-//W3C//DTD SVG 1.1//EN" "http://www.w3.org/Graphics/SVG/1.1/DTD/svg11.dtd"><svg t="1605765081219" class="icon" viewBox="0 0 1024 1024" version="1.1" xmlns="http://www.w3.org/2000/svg" p-id="2918" xmlns:xlink="http://www.w3.org/1999/xlink" width="200" height="200"><defs><style type="text/css"></style></defs><path d="M919.6 126.1 543.6 5.7c-20.5-6.5-42.8-6.5-63.3 0L104.4 126.1c-31.9 10.2-53.3 39.4-53.3 72.7l0 264.2c0 152.6 74.2 297.8 198.5 388.2l216.8 157.5c13.4 9.7 29.2 14.9 45.7 14.9 16.6 0 32.4-5.1 45.7-14.8l216.8-157.7c124.3-90.5 198.5-235.6 198.5-388.2L973.1 198.7C972.9 165.5 951.5 136.3 919.6 126.1zM120.4 174.5 496.2 54.1c5.1-1.7 10.5-2.5 16-2.5 5.4 0 10.7 0.8 15.8 2.5l375.9 120.4c10.7 3.4 18 13.2 18 24.3l0 13.6-819.4 0 0-13.6C102.4 187.5 109.7 177.8 120.4 174.5zM921.8 462.9l-0.2 0c0 136.7-66.4 266.4-177.6 347.3L527.3 967.8c-9 6.5-21.7 6.6-30.7 0L279.9 810.1c-111.2-80.8-177.6-210.7-177.6-347.2L102.3 263.6l819.4 0L921.8 462.9 921.8 462.9zM808 336.6 441.1 673.5 287 475.1c-8.6-11.1-24.6-13.1-35.6-4.5-11.1 8.6-13.1 24.5-4.5 35.6l171 220.2c4.4 5.6 10.9 9.1 17.9 9.7 0.7 0.1 1.4 0.1 2.1 0.1 6.3 0 12.5-2.4 17.2-6.7L842.3 374c10.3-9.5 11-25.5 1.5-35.9C834.3 327.8 818.3 327.2 808 336.6z" p-id="2919"></path></svg>